{"title":"Welcome To Myrtle Manor S03E10 HDTV x264-CRiMSON","uid":12098698,"size":345741276,"categoryP":"video","categoryS":"tv_shows","magnet":"?xt=urn:btih:264738b4762ef546b2491830bd990c89915de66d&amp;dn=Welcome+To+Myrtle+Manor+S03E10+HDTV+x264-CRiMSON&amp;tr=udp%3A%2F%2Ftracker.openbittorrent.com%3A80&amp;tr=udp%3A%2F%2Fopen.demonii.com%3A1337&amp;tr=udp%3A%2F%2Ftracker.coppersurfer.tk%3A6969&amp;tr=udp%3A%2F%2Fexodus.desync.com%3A6969","seeders":0,"leechers":3,"uploader":"Mulva1989","files":2,"time":1436237119,"description":"Welcome To Myrtle Manor S03E10 HDTV x264-CRiMSON\n\nBecky is perturbed when Roxy plans to replace her pool, the ladies crash Marvin's bachelor party.\n\nScreens @ &lt;a href=&quot;\nhttps://yuq.me/users/50/321/bTdxNIaWZu.jpg&quot; rel=&quot;nofollow&quot; target=&quot;_NEW&quot;&gt;\nhttps://yuq.me/users/50/321/bTdxNIaWZu.jpg&lt;/a&gt; &lt;a href=&quot;\nhttps://yuq.me/users/50/321/IlVAv8pSTn.jpg&quot; rel=&quot;nofollow&quot; target=&quot;_NEW&quot;&gt;\nhttps://yuq.me/users/50/321/IlVAv8pSTn.jpg&lt;/a&gt;\n\nFormat : MPEG-4\nFormat profile : Base Media\nCodec ID : isom\nFile size : 330 MiB\nDuration : 41mn 30s\nOverall bit rate mode : Variable\nOverall bit rate : 1 111 Kbps\nEncoded date : UTC 2015-07-06 02:14:05\nTagged date : UTC 2015-07-06 02:14:05\n\nVideo\nID : 1\nFormat : AVC\nFormat/Info : Advanced Video Codec\nFormat profile : &lt;a class=&quot;__cf_email__&quot; href=&quot;/cdn-cgi/l/email-protection&quot; data-cfemail=&quot;eaa2838d82aaa6d9c4db&quot;&gt;[email&amp;#160;protected]&lt;/a&gt;&lt;script data-cfhash='f9e31' type=&quot;text/javascript&quot;&gt;\n/* &lt;![CDATA[ */!function(){try{var t=&quot;currentScript&quot;in document?document.currentScript:function(){for(var t=document.getElementsByTagName(&quot;script&quot;),e=t.length;e--;)if(t[e].getAttribute(&quot;data-cfhash&quot;))return t[e]}();if(t&amp;&amp;t.previousSibling){var e,r,n,i,c=t.previousSibling,a=c.getAttribute(&quot;data-cfemail&quot;);if(a){for(e=&quot;&quot;,r=parseInt(a.substr(0,2),16),n=2;a.length-n;n+=2)i=parseInt(a.substr(n,2),16)^r,e+=String.fromCharCode(i);e=document.createTextNode(e),c.parentNode.replaceChild(e,c)}t.parentNode.removeChild(t);}}catch(u){}}()/* ]]&gt; */&lt;/script&gt;\nFormat settings, CABAC : Yes\nFormat settings, ReFrames : 5 frames\nCodec ID : avc1\nCodec ID/Info : Advanced Video Coding\nDuration : 41mn 30s\nBit rate : 981 Kbps\nMaximum bit rate : 3 161 Kbps\nWidth : 720 pixels\nHeight : 406 pixels\nDisplay aspect ratio : 16:9\nOriginal display aspect rat : 16:9\nFrame rate mode : Constant\nFrame rate : 29.970 fps\nColor space : YUV\nChroma subsampling : 4:2:0\nBit depth : 8 bits\nScan type : Progressive\nBits/(Pixel*Frame) : 0.112\nStream size : 291 MiB (88%)\nWriting library : x264 core 146 r2538 121396c\nEncoding settings : cabac=1 / ref=5 / deblock=1:-1:-1 / analyse=0x3:0x113 / me=umh / subme=8 / psy=1 / psy_rd=1.00:0.15 / mixed_ref=1 / me_range=16 / chroma_me=1 / trellis=1 / 8x8dct=1 / cqm=0 / deadzone=21,11 / fast_pskip=1 / chroma_qp_offset=-3 / threads=6 / lookahead_threads=1 / sliced_threads=0 / nr=0 / decimate=1 / interlaced=0 / bluray_compat=0 / constrained_intra=0 / bframes=3 / b_pyramid=2 / b_adapt=2 / b_bias=0 / direct=3 / weightb=1 / open_gop=0 / weightp=2 / keyint=300 / keyint_min=29 / scenecut=40 / intra_refresh=0 / rc_lookahead=50 / rc=crf / mbtree=1 / crf=21.0 / qcomp=0.60 / qpmin=0 / qpmax=69 / qpstep=4 / ip_ratio=1.40 / aq=1:1.00\nEncoded date : UTC 2015-07-01 01:53:38\nTagged date : UTC 2015-07-06 02:14:37\nColor primaries : BT.709\nMatrix coefficients : BT.709\nColor range : Limited\n\nAudio\nID : 2\nFormat : AAC\nFormat/Info : Advanced Audio Codec\nFormat profile : LC\nCodec ID : 40\nDuration : 41mn 30s\nBit rate mode : Variable\nBit rate : 125 Kbps\nMaximum bit rate : 156 Kbps\nChannel(s) : 2 channels\nChannel positions : Front: L R\nSampling rate : 48.0 KHz\nCompression mode : Lossy\nStream size : 37.1 MiB (11%)\nEncoded date : UTC 2015-07-01 01:54:18\nTagged date : UTC 2015-07-06 02:14:37","torrent":{"xt":"urn:btih:264738b4762ef546b2491830bd990c89915de66d","amp;dn":"Welcome+To+Myrtle+Manor+S03E10+HDTV+x264-CRiMSON","amp;tr":["udp%3A%2F%2Ftracker.openbittorrent.com%3A80","udp%3A%2F%2Fopen.demonii.com%3A1337","udp%3A%2F%2Ftracker.coppersurfer.tk%3A6969","udp%3A%2F%2Fexodus.desync.com%3A6969"],"infoHash":"264738b4762ef546b2491830bd990c89915de66d","infoHashBuffer":{"type":"Buffer","data":[38,71,56,180,118,46,245,70,178,73,24,48,189,153,12,137,145,93,230,109]},"announce":[],"urlList":[]}}